<svg width="237" height="237" viewBox="0 0 237 237" fill="none" xmlns="http://www.w3.org/2000/svg">
<g clip-path="url(#clip0_2050_4)">
<path d="M121.041 26.001C169.863 27.066 209.313 66.1424 210.965 114.807L210.997 115.958V115.961C211.076 120.247 207.607 123.779 203.34 123.779H120.819C116.625 123.779 113.219 120.373 113.219 116.179V47.1484C71.9095 47.6838 38.5802 81.3446 38.5801 122.781C38.5801 164.551 72.4487 198.42 114.219 198.42C126.143 198.42 137.656 195.665 148.076 190.445C150.337 189.306 152.527 188.066 154.615 186.744C156.713 185.41 158.67 184.039 160.506 182.61L160.507 182.609C174.093 172.083 183.774 157.22 187.784 140.451C188.138 138.971 188.432 137.558 188.668 136.193C189.213 133.043 192.208 130.93 195.359 131.475C198.412 132.002 200.49 134.83 200.122 137.871L200.078 138.166C199.798 139.785 199.454 141.437 199.047 143.144H199.046C194.418 162.497 183.256 179.631 167.608 191.755C165.48 193.412 163.223 194.993 160.818 196.522L160.817 196.523C158.399 198.054 155.879 199.48 153.274 200.793L153.272 200.794C141.24 206.82 127.952 210 114.219 210C66.0532 210 27 170.946 27 122.781C27.0001 74.9495 65.5138 36.1043 113.219 35.5684V33.6582C113.219 29.3905 116.752 25.9216 121.038 26.001H121.041ZM124.799 45.4062C141.184 47.9139 156.446 55.5297 168.467 67.5508C170.728 69.8122 170.728 73.4778 168.467 75.7393C166.206 78.0001 162.54 78 160.279 75.7393C150.449 65.909 138.103 59.5419 124.799 57.1455V112.199H199.233C196.406 72.3958 164.599 40.5931 124.799 37.7646V45.4062Z" fill="url(#paint0_linear_2050_4)" stroke="url(#paint1_linear_2050_4)" stroke-width="2"/>
</g>
<defs>
<linearGradient id="paint0_linear_2050_4" x1="118.999" y1="27" x2="118.999" y2="209" gradientUnits="userSpaceOnUse">
<stop stop-color="#ED2A8A"/>
<stop offset="1" stop-color="#1761CD"/>
</linearGradient>
<linearGradient id="paint1_linear_2050_4" x1="118.999" y1="27" x2="118.999" y2="209" gradientUnits="userSpaceOnUse">
<stop stop-color="#ED2A8A"/>
<stop offset="1" stop-color="#1761CD"/>
</linearGradient>
<clipPath id="clip0_2050_4">
<rect width="237" height="237" rx="20" fill="white"/>
</clipPath>
</defs>
</svg>
