<svg width="237" height="237" viewBox="0 0 237 237" fill="none" xmlns="http://www.w3.org/2000/svg">
<g clip-path="url(#clip0_2050_4)">
<rect x="-25" y="-25" width="287" height="287" rx="10" fill="#091229"/>
<path fill-rule="evenodd" clip-rule="evenodd" d="M213.535 123.357C217.689 123.357 221.074 119.914 220.997 115.735C219.817 61.1905 175.818 17.1914 121.263 16.0013C117.084 15.9239 113.641 19.3081 113.641 23.4628V26.7185C60.2719 26.7185 17 69.9907 17 123.359C17 176.728 60.2719 220 113.641 220C128.86 220 143.582 216.476 156.913 209.8C159.801 208.344 162.593 206.765 165.272 205.068C167.941 203.372 170.441 201.62 172.796 199.787C190.137 186.352 202.504 167.365 207.632 145.922C208.084 144.03 208.465 142.201 208.775 140.413C209.28 137.49 207.32 134.713 204.398 134.208C201.477 133.703 198.699 135.662 198.194 138.584C197.925 140.139 197.59 141.746 197.189 143.426C192.634 162.473 181.639 179.352 166.211 191.305C164.122 192.931 161.899 194.488 159.52 196.001C157.147 197.503 154.659 198.911 152.093 200.204C140.258 206.133 127.18 209.262 113.641 209.262C66.2024 209.262 27.7378 170.798 27.7378 123.359C27.7378 75.9207 66.2024 37.4564 113.641 37.4564V115.958C113.641 120.04 116.957 123.357 121.039 123.357H213.535ZM124.378 37.5995V26.8697C170.507 29.5423 207.457 66.4875 210.128 112.619H124.378V48.4603C140.017 50.9955 154.556 58.3326 166.061 69.8382C168.158 71.9348 171.557 71.9348 173.654 69.8382C175.75 67.7411 175.75 64.3421 173.654 62.245C160.117 48.7083 142.871 40.2216 124.378 37.5995Z" fill="url(#paint0_linear_2050_4)"/>
</g>
<defs>
<linearGradient id="paint0_linear_2050_4" x1="118.999" y1="16" x2="118.999" y2="220" gradientUnits="userSpaceOnUse">
<stop stop-color="#ED2A8A"/>
<stop offset="1" stop-color="#1761CD"/>
</linearGradient>
<clipPath id="clip0_2050_4">
<rect width="237" height="237" rx="20" fill="white"/>
</clipPath>
</defs>
</svg>
